<svg xmlns="http://www.w3.org/2000/svg" xml:space="preserve" width="20px" height="14px" version="1.1" 
viewBox="0 0 0.48 0.34" xmlns:xlink="http://www.w3.org/1999/xlink">
  <path d="M0.44 0l-0.4 0c-0.02,0 -0.04,0.02 -0.04,0.04l0 0.25c0,0.03 0.02,0.05 0.04,0.05l0.4 0c0.02,0 0.04,-0.02 0.04,-0.05l0 -0.25c0,-0.02 -0.02,-0.04 -0.04,-0.04zm-0.01 0.03c-0.01,0.01 -0.17,0.17 -0.18,0.18 -0.01,0 -0.02,0 -0.02,0l-0.18 -0.18 0.38 0zm-0.4 0.26l0 -0.24 0.12 0.12 -0.12 0.12zm0.02 0.02l0.12 -0.12 0.04 0.04c0.01,0.01 0.04,0.01 0.06,0l0.04 -0.04 0.12 0.12 -0.38 0zm0.4 -0.02l-0.12 -0.12 0.12 -0.12 0 0.24zm0 0z" fill="#ffffff" fill-rule="nonzero"/>
</svg>